<svg width="232" height="204" xmlns="http://www.w3.org/2000/svg" xmlns:xlink="http://www.w3.org/1999/xlink" xml:space="preserve" overflow="hidden"><defs><clipPath id="clip0"><rect x="270" y="180" width="232" height="204"/></clipPath><clipPath id="clip1"><rect x="270" y="180" width="232" height="204"/></clipPath><clipPath id="clip2"><rect x="271" y="180" width="231" height="204"/></clipPath><clipPath id="clip3"><rect x="271" y="180" width="231" height="204"/></clipPath><clipPath id="clip4"><rect x="271" y="180" width="418" height="204"/></clipPath></defs><g clip-path="url(#clip0)" transform="translate(-270 -180)"><g clip-path="url(#clip1)"><g clip-path="url(#clip2)"><g clip-path="url(#clip3)"><g clip-path="url(#clip4)"><path d="M279.487 68.1069C261.626 68.1372 247.172 82.6406 247.202 100.501 247.232 118.362 261.736 132.816 279.596 132.786 297.437 132.755 311.883 118.283 311.881 100.442 311.881 100.294 311.881 100.147 311.881 99.9988 311.935 82.4368 297.741 68.1564 280.179 68.1027ZM279.487 123.139C267.3 122.776 257.715 112.603 258.078 100.417 258.078 100.277 258.078 100.138 258.078 99.9946 257.728 88.1847 267.018 78.3274 278.828 77.9776 290.638 77.6279 300.495 86.9181 300.845 98.728 300.845 99.1474 300.845 99.5696 300.845 99.9946 301.443 112.16 292.073 122.51 279.909 123.122Z" fill="#191919" fill-rule="nonzero" fill-opacity="1" transform="matrix(1 0 0 1.00667 271 180)"/><path d="M347.319 95.9289C340.898 93.2776 335.354 90.9894 335.354 85.8851 335.844 80.9405 340.249 77.3288 345.194 77.8182 345.255 77.8243 345.316 77.831 345.377 77.8383 350.475 78.0286 355.37 79.887 359.309 83.1283L363.898 74.5326C358.76 70.2001 352.205 67.9126 345.487 68.1069 333.598 68.1069 324.639 75.8414 324.639 86.0625 324.639 96.8155 334.046 100.868 342.342 104.44 348.919 107.273 354.585 109.713 354.585 114.923 354.376 119.654 350.372 123.32 345.641 123.112 345.402 123.101 345.163 123.081 344.925 123.05 339.08 122.772 333.51 120.485 329.157 116.574L323.394 124.545C329.191 129.925 336.83 132.879 344.74 132.798 356.801 132.798 365.228 125.343 365.228 114.644 365.241 103.33 355.725 99.3993 347.319 95.9289Z" fill="#191919" fill-rule="nonzero" fill-opacity="1" transform="matrix(1 0 0 1.00667 271 180)"/><path d="M417.963 69.1793 377.349 69.1793 377.349 77.9312 392.632 77.9312 392.632 131.722 402.566 131.722 402.566 77.9312 417.963 77.9312Z" fill="#191919" fill-rule="nonzero" fill-opacity="1" transform="matrix(1 0 0 1.00667 271 180)"/><path d="M173.565 29.9752C134.17-9.83468 69.9625-10.1715 30.1527 29.2229-9.65712 68.6172-9.99393 132.825 29.4004 172.635 68.7948 212.445 133.002 212.781 172.812 173.387 172.852 173.348 172.892 173.308 172.931 173.269L173.286 172.919C191.672 154.587 223.708 129.26 223.708 101.324 223.708 73.532 191.773 48.3149 173.565 29.9752ZM168.473 158.822C153.264 174.05 132.621 182.601 111.098 182.587 108.565 182.587 106.099 182.452 103.642 182.219 102.376 182.105 101.147 181.958 99.9144 181.797 97.4615 182.139 94.979 182.376 92.4628 182.49 91.2258 182.549 89.9846 182.582 88.7307 182.582 43.9627 182.582 7.67111 146.291 7.67111 101.523 7.67111 56.7549 43.9627 20.4633 88.7307 20.4633 89.9972 20.4633 91.2173 20.5055 92.4501 20.5604 94.9832 20.6744 97.4572 20.9277 99.9101 21.2528 101.14 21.0811 102.381 20.9404 103.634 20.8306 106.095 20.6069 108.578 20.4633 111.094 20.4633 132.729 20.448 153.471 29.089 168.697 44.4603 183.262 59.1186 208.804 79.2906 208.804 101.54 208.8 123.873 183.157 144.142 168.473 158.822Z" fill="#191919" fill-rule="nonzero" fill-opacity="1" transform="matrix(1 0 0 1.00667 271 180)"/><path d="M168.684 44.4645C153.462 29.093 132.723 20.4516 111.09 20.4675 107.345 20.3762 103.601 20.6391 99.9059 21.2528 119.432 23.0386 140.714 31.305 153.785 44.473 168.351 59.1355 193.893 79.3033 193.893 101.557 193.893 123.903 168.249 144.168 153.553 158.847 138.578 173.797 119.314 180.049 99.9017 181.827 103.601 182.392 107.34 182.655 111.081 182.612 132.605 182.621 153.247 174.064 168.452 158.83 183.148 144.147 208.792 123.882 208.792 101.54 208.8 79.2948 183.249 59.1059 168.684 44.4645Z" fill="#8C195F" fill-rule="nonzero" fill-opacity="1" transform="matrix(1 0 0 1.00667 271 180)"/><path d="M99.8975 21.257C117.505 23.6958 133.822 31.8546 146.338 44.4772 160.903 59.1355 186.445 79.3075 186.445 101.561 186.445 123.907 160.806 144.172 146.106 158.847 133.623 171.335 117.404 179.405 99.9144 181.831L99.9144 181.831C119.094 180.142 138.903 173.67 153.566 158.847 168.228 144.024 193.905 123.903 193.905 101.561 193.905 79.3244 168.359 59.1524 153.798 44.4772 140.71 31.3219 119.445 23.0555 99.9186 21.257" fill="#D72864" fill-rule="nonzero" fill-opacity="1" transform="matrix(1 0 0 1.00667 271 180)"/><path d="M15.0002 101.527C15.0002 58.0716 49.9825 22.456 99.8975 21.2444 96.1961 20.7136 92.4614 20.4498 88.7222 20.4549 43.9543 20.4549 7.66267 56.7465 7.66267 101.514 7.66267 146.282 43.9543 182.574 88.7222 182.574 92.4681 182.747 96.2214 182.482 99.9059 181.785 57.0161 182.971 15.0002 144.974 15.0002 101.527Z" fill="#8C195F" fill-rule="nonzero" fill-opacity="1" transform="matrix(1 0 0 1.00667 271 180)"/><path d="M29.8992 101.519C29.8824 61.0238 59.774 26.7384 99.8932 21.2359L99.8932 21.2359C49.991 22.4349 14.996 58.0631 14.996 101.519 14.996 144.974 56.9528 182.971 99.9017 181.806 59.8231 176.222 29.9707 141.984 29.8992 101.519Z" fill="#D72864" fill-rule="nonzero" fill-opacity="1" transform="matrix(1 0 0 1.00667 271 180)"/></g></g></g></g></g></svg>